# xmcd
#
# Track frame offsets: 
#        150
#        18088
#        36800
#        55173
#        74188
#        91297
#        112058
#        134741
#        151917
#        175562
#        196756
#        212758
#        234871
#
# Disc length: 3356 seconds
#
# Revision: 2
# Processed by: cddbd v1.5.2PL0 Copyright (c) Steve Scherf et al.
# Submitted via: ExactAudioCopy v1.0b4
#
DISCID=ad0d1a0d
DTITLE=Sandy Carroll - Delta Techno
DYEAR=2006
DGENRE=Electric Blues
TTITLE0=Back in Business
TTITLE1=Toolbox
TTITLE2=Used To Be
TTITLE3=Where Blue Begins
TTITLE4=Bound For Glory
TTITLE5=Women In Me
TTITLE6=No Looking Back
TTITLE7=Bottom of the Blues
TTITLE8=Nothin' Hurts Like a Heart
TTITLE9=Smooth Blues
TTITLE10=Never Be Free
TTITLE11=Make Up Your Mind
TTITLE12=King of the Mountain
EXTD=
EXTT0=
EXTT1=
EXTT2=
EXTT3=
EXTT4=
EXTT5=
EXTT6=
EXTT7=
EXTT8=
EXTT9=
EXTT10=
EXTT11=
EXTT12=
PLAYORDER=
